<?xml version="1.0" standalone="no"?>
<!DOCTYPE svg PUBLIC "-//W3C//DTD SVG 20010904//EN"
 "http://www.w3.org/TR/2001/REC-SVG-20010904/DTD/svg10.dtd">
<svg version="1.0" xmlns="http://www.w3.org/2000/svg"
 width="300.000000pt" height="59.000000pt" viewBox="0 0 300.000000 59.000000"
 preserveAspectRatio="xMidYMid meet">

<g transform="translate(0.000000,59.000000) scale(0.100000,-0.100000)"
fill="#000000" stroke="none">
<path d="M1495 543 c-13 -21 -32 -58 -40 -83 -14 -42 -18 -46 -43 -43 -38 5
-88 -29 -103 -71 -7 -20 -16 -36 -19 -36 -4 0 -35 -22 -71 -50 -35 -27 -66
-50 -69 -50 -3 0 -4 36 -2 80 4 80 4 80 -21 80 -18 0 -41 -18 -81 -61 -32 -35
-56 -53 -56 -44 0 24 25 78 44 94 15 13 15 15 0 32 -10 11 -22 19 -29 19 -6 0
-54 -21 -105 -46 -88 -42 -95 -44 -107 -28 -18 24 -17 28 13 76 21 32 23 42
12 49 -7 5 -17 9 -21 9 -16 0 -67 -65 -67 -86 0 -31 -68 -88 -135 -113 -32
-12 -60 -19 -63 -16 -3 3 4 26 16 53 36 80 37 92 9 92 -14 0 -30 -6 -36 -14
-11 -13 -17 -12 -45 5 -57 33 -108 -2 -108 -76 0 -42 18 -75 40 -75 9 0 30 8
47 18 29 18 30 18 40 -2 13 -26 47 -32 88 -15 37 15 127 77 143 98 18 23 36
-39 18 -64 -33 -45 -4 -97 41 -77 29 14 45 47 39 83 -4 21 3 29 66 62 39 22
73 37 75 35 2 -2 -2 -22 -8 -45 -13 -50 -1 -96 27 -101 12 -3 38 15 73 50 l55
53 -5 -53 c-4 -30 -21 -83 -42 -125 -19 -39 -38 -89 -42 -110 -5 -32 -3 -37
13 -37 11 0 24 4 31 8 12 8 63 110 63 127 0 6 34 41 76 78 75 67 77 68 88 45
15 -31 59 -35 85 -9 25 25 31 26 31 6 0 -8 11 -22 25 -31 31 -20 62 -13 127
26 l47 29 30 -29 c35 -36 68 -38 107 -8 23 19 38 22 85 20 34 -2 60 1 63 7 12
19 24 12 31 -20 14 -63 103 -62 189 2 l41 30 18 -26 c22 -30 46 -32 79 -5 l25
19 12 -26 c11 -23 16 -25 52 -20 22 3 58 17 80 31 21 14 40 26 43 26 2 0 -10
-42 -26 -92 -33 -104 -49 -178 -39 -178 4 0 27 47 51 105 43 101 46 105 70 98
57 -18 129 -7 199 29 67 34 68 34 77 14 14 -32 48 -31 124 5 89 41 92 56 3 19
-37 -16 -71 -26 -75 -24 -4 3 1 23 12 44 24 47 25 66 5 74 -16 6 -55 -30 -55
-50 0 -24 -142 -99 -176 -92 -14 2 -9 9 19 28 20 14 47 44 59 67 l23 43 -20
20 c-32 32 -82 12 -146 -58 -29 -31 -49 -48 -45 -37 5 11 13 39 19 62 11 47
-1 73 -34 73 -16 0 -19 -8 -19 -51 0 -44 -4 -55 -30 -79 -29 -27 -126 -68
-136 -57 -2 2 7 28 21 58 32 68 32 89 2 89 -13 0 -28 -5 -34 -11 -7 -7 -21 -6
-48 5 -52 22 -85 6 -100 -49 -10 -35 -18 -44 -75 -73 -70 -36 -120 -42 -120
-15 0 21 57 110 76 117 12 5 12 2 -2 -18 -22 -34 0 -42 26 -9 27 34 22 57 -12
61 -39 5 -90 -23 -116 -63 -30 -47 -80 -71 -118 -58 -25 9 -29 15 -26 42 1 17
-5 45 -13 61 -27 52 -85 76 -85 34 0 -8 -7 -14 -17 -14 -20 0 -73 -58 -73 -80
0 -16 -112 -90 -137 -90 -21 0 -15 32 32 172 25 73 48 141 52 151 11 34 -35
19 -62 -20z m255 -180 c0 -45 -13 -35 -16 13 -2 20 1 32 6 29 6 -4 10 -22 10
-42z m-333 -24 c-8 -19 -26 -45 -41 -58 l-26 -24 0 31 c0 21 10 43 31 67 38
43 57 34 36 -16z m1242 34 c-32 -43 -56 -66 -82 -80 -27 -13 -28 -13 -18 5 13
25 88 92 102 92 8 0 7 -6 -2 -17z m-939 -18 c0 -8 6 -24 13 -36 10 -18 8 -23
-16 -45 -16 -13 -33 -22 -38 -19 -14 9 -11 53 6 85 17 32 35 40 35 15z m-1227
-2 c7 -13 -11 -53 -24 -53 -7 0 -21 -7 -31 -17 -29 -26 -23 9 8 46 26 31 39
38 47 24z m1797 -4 c0 -18 -20 -49 -32 -49 -6 0 -20 -7 -30 -17 -32 -29 -22
14 11 48 30 30 51 37 51 18z"/>
<path d="M175 557 c-57 -14 -144 -57 -166 -83 -12 -15 -12 -16 6 -11 73 22 76
21 69 -9 -3 -16 -12 -40 -18 -54 -8 -16 -10 -48 -6 -89 l6 -63 -33 5 c-41 7
-42 -4 -2 -37 35 -30 44 -31 159 -12 93 16 140 31 140 45 0 21 -27 29 -80 21
-30 -4 -74 -10 -97 -13 l-43 -5 0 44 0 44 45 0 c57 0 127 27 123 48 -5 26 -41
30 -102 12 l-58 -18 7 46 c4 26 10 50 13 54 4 4 49 13 99 19 113 15 127 22 94
49 -26 23 -77 25 -156 7z"/>
<path d="M2898 499 c-20 -11 -24 -34 -6 -45 12 -8 38 21 38 43 0 15 -9 16 -32
2z"/>
</g>
</svg>
